<svg id="Layer_1" data-name="Layer 1" xmlns="http://www.w3.org/2000/svg" viewBox="0 0 48.11 62.19"><title>AEK Athens FC logo - Brandlogos.net</title><path d="M355.95,326.24h0l-.22.08-.21-.08A35.84,35.84,0,0,1,336,308.76a35,35,0,0,1-2-4.94,37.08,37.08,0,0,1-1.73-11.31h0v-.37h0c0-.12,0-.25,0-.36h0V270.88h.61a55.87,55.87,0,0,0,17.47-3q1.39-.5,2.68-1.08c.85-.39,1.64-.79,2.37-1.21l0,0,.31-.18.3.18a42.36,42.36,0,0,0,15.09,4.69q1.76.24,3.63.39t3.79.19h.65v20.89h0v.73a35.35,35.35,0,0,1-12.91,27.76,36.39,36.39,0,0,1-4.9,3.39,37.49,37.49,0,0,1-5.45,2.59Z" transform="translate(-331.67 -264.76)" style="fill:none;stroke:#fff;stroke-miterlimit:22.926000595092773;stroke-width:1.1649999618530273px"/><path d="M355.95,326.24h0l-.22.08-.21-.08A35.84,35.84,0,0,1,336,308.76a35,35,0,0,1-2-4.94,37.08,37.08,0,0,1-1.73-11.31h0v-.37h0c0-.12,0-.25,0-.36h0V270.88h.61a55.87,55.87,0,0,0,17.47-3q1.39-.5,2.68-1.08c.85-.39,1.64-.79,2.37-1.21l0,0,.31-.18.3.18a42.36,42.36,0,0,0,15.09,4.69q1.76.24,3.63.39t3.79.19h.65v20.89h0v.73a35.35,35.35,0,0,1-12.91,27.76,36.39,36.39,0,0,1-4.9,3.39,37.49,37.49,0,0,1-5.45,2.59h0" transform="translate(-331.67 -264.76)" style="fill:#fff"/><path d="M355.73,325.67a34.9,34.9,0,0,0,22.86-33.16c0-.24,0-.49,0-.73V271.49c-9.26-.18-17.47-2.24-22.85-5.34-5.38,3.11-13.59,5.16-22.85,5.34v20.29q0,.37,0,.73a34.9,34.9,0,0,0,22.86,33.16" transform="translate(-331.67 -264.76)" style="fill:#ffd400;fill-rule:evenodd"/><path d="M349.58,299.68c-.81.27-.48,1.54-1.92,1.12-.76,0-.91,1.81-2.18,1.12-.86.36-.32,1.27.51,1.17,1.26-.32,1.81.64,2.24,2,1.09-.18,1.6-1.22,2.66-1.32,0-.67.87-.88.83-1.4.06-1.28-.17-2.73-2.15-2.72M363,287.2a2.07,2.07,0,0,1,.46.18,1.4,1.4,0,0,0,0-.17c0-.51-.26-.93-.59-.93h-.06a1.71,1.71,0,0,1,.18.81S363,287.17,363,287.2Zm-2.35.11a2.51,2.51,0,0,1,.46-.15s0-.07,0-.11a1.57,1.57,0,0,1,.18-.78h-.06c-.32,0-.59.4-.59.89A1.22,1.22,0,0,0,360.64,287.32Zm-10.11-.14a2.44,2.44,0,0,1,.46.15,1.21,1.21,0,0,0,0-.16c0-.49-.26-.89-.59-.89h-.06a1.57,1.57,0,0,1,.18.78S350.53,287.14,350.53,287.17Zm-2.35.19a2.22,2.22,0,0,1,.46-.17s0-.06,0-.1a1.71,1.71,0,0,1,.18-.81h-.06c-.32,0-.59.42-.59.93C348.17,287.26,348.17,287.32,348.18,287.37Zm15.5,15.88a2.63,2.63,0,0,1,2.11.24c.74-.06,1.18-1.23.37-1.57-1.27.7-1.42-1.13-2.18-1.12-1.44.42-1.11-.85-1.92-1.12-2,0-2.21,1.44-2.15,2.72,0,.53.87.74.83,1.4a2.78,2.78,0,0,1,1.41.69,2.63,2.63,0,0,1,1.23-1.14l-.17-.46-.74.28-.12-.3.74-.28-.28-.74.3-.11.28.74.74-.28.12.3-.74.28Zm-7,12a1.81,1.81,0,0,1,.63.47c.16.11.66.32.58-.09a1.37,1.37,0,0,1,0-.74,2.38,2.38,0,0,1,.91.66c.24.15.4.12.38-.37,0-.17-.05-.5,0-.67a6.37,6.37,0,0,0,1.18.68c.35.12.49-.18.14-.57a1.27,1.27,0,0,1-.2-.84,13.17,13.17,0,0,0,1.5,1c.24.18.71-.16.32-.65s-.85-.69-.93-1.38a5.84,5.84,0,0,1,1.67,1c.39.32,1-.18.44-.69a11.23,11.23,0,0,1-3.2-5.8c.72.09,1.68.24,2.54.31a2.64,2.64,0,0,0,4.48-2.35c.06,0,.09,0,.09,0,0-.29.18-.23.35-.16.6.23.82,1.34,1.62,1.67l.08-.84a7.12,7.12,0,0,0,1.74,2.25,13.64,13.64,0,0,1-.41-2.74c.72,1,1.42,2.66,2.48,3a92.62,92.62,0,0,0-5.21-15.24c-.78-1.61-2.42-3.58-4.15-1.9-.75.71-1,1.58-2.2,2.13a1.19,1.19,0,0,1-1.63-1.17,1.15,1.15,0,0,1,.79-1.08c1-.31,2.09-.15,3-1.32.69-.22,1.35.24,1.82.3a2.54,2.54,0,0,0-1.37-1.93c0-1.16.4-2.49-1.78-2.9v-.85h-.49l0,.88c-1.45-.11-2.11,1.14-2.09,2.36-.76,0-1.16,1.26-2.13,1.14l0-.78,1.06-1.14-.07-2.25-1.75,1.44v1.71l-1,1.9-1-1.9v-1.71L353,284.69l-.07,2.25,1.06,1.14,0,.78c-1,.12-1.37-1.1-2.13-1.14,0-1.21-.64-2.46-2.09-2.36l0-.88h-.49v.85c-2.18.41-1.83,1.74-1.78,2.9a2.54,2.54,0,0,0-1.37,1.93c.47-.07,1.13-.53,1.82-.3,1,1.17,2,1,3,1.32a1.15,1.15,0,0,1,.79,1.08,1.19,1.19,0,0,1-1.63,1.17c-1.25-.55-1.45-1.42-2.2-2.13-1.73-1.68-3.37.29-4.15,1.9-.85,2.06-1.63,4-2.4,6.08-2-2.52-4.17-5.46-5.46-6.21,0,1.12,2.83,5,4.78,8a63.16,63.16,0,0,0-2.13,7.34c1.06-.39,1.76-2,2.48-3a13.64,13.64,0,0,1-.41,2.74,7.12,7.12,0,0,0,1.74-2.25l.08.84c.8-.32,1-1.44,1.62-1.67.17-.07.39-.13.35.16,0,1.11-1.17,2.53,1.79,3.36.61,1.07,2.28,1.37,2.08-.67,0-.11-.09-.22.06-.27,1,0,2.29-.23,3.2-.34a11.22,11.22,0,0,1-3.2,5.8c-.55.5,0,1,.44.69a5.38,5.38,0,0,1,1.59-1c-.08.69-.36.79-.85,1.36s0,.83.32.65a13.08,13.08,0,0,0,1.49-1,1.27,1.27,0,0,1-.2.84c-.35.39-.2.67.14.57s.77-.46,1.18-.68c0,.17-.05.5,0,.67,0,.49.14.52.38.37a2.36,2.36,0,0,1,.91-.66,1.25,1.25,0,0,1,0,.74c-.08.41.42.2.58.09a1.79,1.79,0,0,1,.63-.47c.1.28.61.7.85,1.07C356,315.95,356.45,315.63,356.66,315.26Z" transform="translate(-331.67 -264.76)" style="fill-rule:evenodd"/><path d="M378.58,281.64V271.49c-9.26-.18-17.47-2.24-22.85-5.34-5.38,3.11-13.59,5.17-22.85,5.34v10.16h45.7" transform="translate(-331.67 -264.76)" style="fill:#fff;fill-rule:evenodd"/><path d="M355.73,325a36.37,36.37,0,0,0,5.05-2.42,35.19,35.19,0,0,0,4.73-3.28A34.14,34.14,0,0,0,378,292.5v-.36c0-.11,0-.23,0-.36h0v-9.51H333.5v9.51h0c0,.13,0,.24,0,.36v.36h0a35.91,35.91,0,0,0,1.67,10.94,33.86,33.86,0,0,0,1.93,4.77A34.58,34.58,0,0,0,355.73,325m.22,1.23h0l-.22.08-.21-.08A35.84,35.84,0,0,1,336,308.76a35,35,0,0,1-2-4.94,37.08,37.08,0,0,1-1.73-11.31h0v-.37h0v-.36h0V270.88h.61a55.87,55.87,0,0,0,17.48-3c.93-.33,1.82-.7,2.68-1.08s1.64-.79,2.37-1.21l0,0,.31-.18.31.18a42.34,42.34,0,0,0,15.09,4.69q1.76.24,3.63.39c1.26.1,2.52.16,3.79.19h.65v20.89h0c0,.11,0,.23,0,.36v.37a35.36,35.36,0,0,1-12.91,27.76,36.47,36.47,0,0,1-4.9,3.39,37.49,37.49,0,0,1-5.45,2.59ZM378,281v-8.94q-1.7,0-3.3-.17-1.88-.15-3.7-.4a44.11,44.11,0,0,1-15.23-4.67q-1,.59-2.2,1.11t-2.77,1.12a56.77,56.77,0,0,1-17.26,3V281Z" transform="translate(-331.67 -264.76)"/><path d="M372.59,279.41q0,.27-.44.33h-.69a2.32,2.32,0,0,1-1.22-.22l-4.34-3.13v2.38a.87.87,0,0,1-.47.69,1.58,1.58,0,0,1-.86.28c-.3,0-.45-.32-.45-1v-6.07a.67.67,0,0,1,.27-.53A1,1,0,0,1,365,272a1,1,0,0,1,.62.19.57.57,0,0,1,.26.49v3.11l4.48-3.28a2,2,0,0,1,1.11-.51,1,1,0,0,1,.51.12.44.44,0,0,1,.26.39q0,.67-.69.67a.63.63,0,0,1-.29-.13.64.64,0,0,0-.33-.13.57.57,0,0,0-.35.14l-3.24,2.42q5.26,3.55,5.26,4m-9.49-.57a.65.65,0,0,1-.24.51.83.83,0,0,1-.57.21.81.81,0,0,1-.56-.21.66.66,0,0,1,0-1,.82.82,0,0,1,.56-.21.83.83,0,0,1,.57.21A.65.65,0,0,1,363.1,278.85Zm-2.85-1q0,.93-1.5,1.49a7,7,0,0,1-2.43.44,5.25,5.25,0,0,1-3.27-1.05,3.39,3.39,0,0,1-1.46-2.79,3.51,3.51,0,0,1,1.47-2.85,5.19,5.19,0,0,1,3.33-1.12,6,6,0,0,1,2.32.47q1.4.59,1.4,1.52a.75.75,0,0,1-.29.58,1,1,0,0,1-.64.25.65.65,0,0,1-.55-.28.87.87,0,0,1-.19-.55,1.26,1.26,0,0,0-.74-1.12,3,3,0,0,0-3.49.6,3.51,3.51,0,0,0-.82,2.13h6.29a.22.22,0,0,1,.25.24.61.61,0,0,1-.23.41.66.66,0,0,1-.45.22c-.08,0-.15-.05-.22-.17s-.15-.17-.22-.17h-5.42a4,4,0,0,0,.89,2.07,2.6,2.6,0,0,0,2.07,1,3,3,0,0,0,1.84-.54,4.72,4.72,0,0,0,.85-1q.37-.54.68-.54a.48.48,0,0,1,.4.26A.84.84,0,0,1,360.25,277.84Zm-8.63,1a.65.65,0,0,1-.24.51.83.83,0,0,1-.57.21.82.82,0,0,1-.56-.21.66.66,0,0,1,0-1,.82.82,0,0,1,.56-.21.83.83,0,0,1,.57.21A.65.65,0,0,1,351.61,278.85Zm-8.33-2.21a8.2,8.2,0,0,1-1.08-1.13l-2,2.74Zm6.11,2.95c0,.08-.13.12-.34.12a6.55,6.55,0,0,1-2.52-.83,20.31,20.31,0,0,1-2.37-1.36l-2.47,1.15a13.1,13.1,0,0,1-2.33.95q-.5,0-.5-.29a1,1,0,0,1,.24-.56l2.75-3.79a9,9,0,0,1-1-2.53q0-.48.7-.48l.4,0a1,1,0,0,1,.69.61l.4.89a11.13,11.13,0,0,0,1,1.61,11.48,11.48,0,0,0,1.3,1.45,23.06,23.06,0,0,0,3.89,2.79C349.36,279.43,349.41,279.51,349.39,279.58Z" transform="translate(-331.67 -264.76)"/><path d="M359.6,321.57h-.51v-.51h.51Zm-1.48-1,.52.16a1.16,1.16,0,0,1-.4.64,1.25,1.25,0,0,1-1.57-.15,1.38,1.38,0,0,1-.34-1,1.45,1.45,0,0,1,.34-1,1.17,1.17,0,0,1,.9-.36,1.09,1.09,0,0,1,.79.29,1,1,0,0,1,.27.49l-.53.13a.54.54,0,0,0-.56-.44.6.6,0,0,0-.48.21,1,1,0,0,0-.18.68,1.1,1.1,0,0,0,.18.71.58.58,0,0,0,.47.21.54.54,0,0,0,.37-.13A.79.79,0,0,0,358.12,320.6Zm-2.21,1h-.51v-.51h.51Zm-2.35,0v-2.64h1.81v.45h-1.28V320h1.1v.45h-1.1v1.12Z" transform="translate(-331.67 -264.76)" style="fill:#231f20"/></svg>